PathFileType	4	(X/Y/Z)	C:\Users\Basilio\Documents\Thesis Gigler\squatting_fais\c3dfiles\040\SLS_pre_front4\markers_experimental.trc
DataRate	CameraRate	NumFrames	NumMarkers	Units	OrigDataRate	OrigDataStartFrame	OrigNumFrames
200.000000	200.000000	4	62	mm	200.000000	1200	1372
Frame#	Time	FHD			LBHD			RBHD			C7			T10			CLAV			LSHO			LUUPA			LMUPA			LDUPA			LLEP			LMEP			LRAD			LUL			LRFIN			RSHO			RUPA1			RMUPA			RDUPA			RLEP			RMEP			RRAD			RUL			RUFIN			LASI			RASI			USACR			LSACR			RSACR			LTHI1			LTHI2			LTHI3			LTHI4			LLFC			LMFC			LTIB1			LTIB2			LTIB3			LTIB4			LLMAL			LMMAL			LHEE			LMT1			LMT2			LMT5			RTHI			RTHI2			RTHI3			RTHI4			RLFC			RMFC			RTIB1			RTIB2			RTIB3			RTIB4			RLMAL			RMMAL			RHEE			RMT1			RMT2			RMT5			*61			
		X1	Y1	Z1	X2	Y2	Z2	X3	Y3	Z3	X4	Y4	Z4	X5	Y5	Z5	X6	Y6	Z6	X7	Y7	Z7	X8	Y8	Z8	X9	Y9	Z9	X10	Y10	Z10	X11	Y11	Z11	X12	Y12	Z12	X13	Y13	Z13	X14	Y14	Z14	X15	Y15	Z15	X16	Y16	Z16	X17	Y17	Z17	X18	Y18	Z18	X19	Y19	Z19	X20	Y20	Z20	X21	Y21	Z21	X22	Y22	Z22	X23	Y23	Z23	X24	Y24	Z24	X25	Y25	Z25	X26	Y26	Z26	X27	Y27	Z27	X28	Y28	Z28	X29	Y29	Z29	X30	Y30	Z30	X31	Y31	Z31	X32	Y32	Z32	X33	Y33	Z33	X34	Y34	Z34	X35	Y35	Z35	X36	Y36	Z36	X37	Y37	Z37	X38	Y38	Z38	X39	Y39	Z39	X40	Y40	Z40	X41	Y41	Z41	X42	Y42	Z42	X43	Y43	Z43	X44	Y44	Z44	X45	Y45	Z45	X46	Y46	Z46	X47	Y47	Z47	X48	Y48	Z48	X49	Y49	Z49	X50	Y50	Z50	X51	Y51	Z51	X52	Y52	Z52	X53	Y53	Z53	X54	Y54	Z54	X55	Y55	Z55	X56	Y56	Z56	X57	Y57	Z57	X58	Y58	Z58	X59	Y59	Z59	X60	Y60	Z60	X61	Y61	Z61	X62	Y62	Z62	

1201	6	-69.98573303222658	1733.327392578125	-1108.294189453125	-201.7005767822266	1725.445068359375	-1156.880859375	-270.2181091308594	1711.009399414063	-1028.533813476563	-311.2718811035157	1584.856567382813	-1067.046875	-379.3018188476563	1262.517333984375	-1050.5625	-201.5582733154297	1489.996459960938	-1073.1259765625	-267.1150512695313	1541.027709960938	-1252.712646484375	-444.6863403320314	1403.689331054688	-1293.388305664063	-429.109344482422	1357.357299804688	-1298.243530273438	-490.0572509765626	1351.708251953125	-1290.7373046875	-535.1763305664064	1309.196655273438	-1276.255981445313	-524.8451538085939	1300.704467773438	-1209.765014648438	-589.9639282226564	1027.49609375	-1285.540771484375	-648.4798583984376	1063.140258789063	-1323.319702148438	-651.9437866210939	952.5645141601565	-1283.948486328125	-246.3365783691407	1521.922241210938	-888.5906372070315	-408.6264648437501	1376.626220703125	-810.4222412109377	-385.3310852050782	1333.22802734375	-804.4375610351565	-443.2318115234376	1317.891235351563	-800.939636230469	-469.6111145019532	1260.712768554688	-790.9311523437502	-486.0030822753907	1253.9638671875	-866.7503051757815	-459.0541076660157	964.1899414062502	-798.3972778320315	-518.9445190429689	987.1831665039065	-755.4703369140626	-499.0202026367189	875.2536621093752	-785.783386230469	-216.8812255859376	1070.776245117188	-1166.089599609375	-194.6920013427735	1083.041748046875	-939.257507324219	-390.4900207519532	1125.659301757813	-1033.963134765625	-399.8672485351564	1093.27587890625	-1059.214477539063	-394.6411437988282	1095.823974609375	-1002.750305175781	-326.2713623046876	809.334899902344	-1199.38916015625	-283.4648742675782	736.0820922851564	-1203.634643554688	-237.8427124023438	742.5984497070314	-1212.703735351563	-299.6565551757813	682.3240966796876	-1186.263427734375	-272.0292053222657	551.8776245117189	-1173.771118164063	-266.0727844238282	539.6853027343751	-1041.686767578125	-251.4068145751954	329.8001403808594	-1120.284912109375	-325.2214660644532	293.8186035156251	-1155.215576171875	-283.8374633789063	283.1099548339844	-1142.01416015625	-282.1459045410157	208.3488159179688	-1102.818725585938	-354.9824523925782	126.6628189086914	-1103.739379882813	-318.3463439941407	141.5097198486328	-1025.910888671875	-413.2990722656251	96.38823699951175	-1049.115112304688	-198.4386901855469	58.91974258422853	-1050.452026367188	-204.5891723632813	51.62392044067384	-1096.38671875	-261.4169006347657	37.78511428833009	-1138.052490234375	-222.8616180419922	813.7065429687502	-861.7905273437502	-185.52001953125	758.0350341796876	-871.0977172851565	-153.4296875	763.1297607421876	-879.3646240234377	-210.7309875488282	680.8413085937501	-879.590759277344	-204.462387084961	550.6935424804689	-893.6341552734377	-207.5135803222657	542.8945922851564	-1024.05908203125	-190.7362213134766	359.6607360839844	-915.340270996094	-277.1059265136719	298.2529907226563	-893.3316040039065	-233.2815856933594	285.1683044433594	-901.2734985351565	-225.8607025146485	237.0618438720704	-934.0147094726565	-302.4802856445313	136.7789306640625	-914.6457519531252	-277.8793334960938	146.9740142822266	-999.2854614257815	-367.5346069335938	101.7167282104492	-973.1672363281252	-151.3888854980469	54.93510055541994	-973.6314697265627	-157.5574645996094	55.64966964721681	-933.5203247070315	-204.5369567871094	39.65974044799805	-882.9787597656252	nan	nan	nan	
1202	6.005	-69.35029602050783	1732.602416992188	-1107.63525390625	-200.8186340332032	1725.1171875	-1156.18994140625	-269.5002136230469	1710.896606445313	-1027.976440429688	-310.6724853515626	1584.67578125	-1066.528442382813	-379.0869445800782	1262.355346679688	-1049.789794921875	-201.373031616211	1489.7138671875	-1072.537353515625	-267.2459411621094	1540.662841796875	-1252.093505859375	-444.370086669922	1402.811157226563	-1292.802612304688	-428.635223388672	1356.455444335938	-1297.591064453125	-489.5877075195314	1350.72509765625	-1290.137084960938	-535.0578002929689	1308.192016601563	-1275.744506835938	-524.4406127929689	1299.700073242188	-1209.165405273438	-588.0788574218751	1025.50244140625	-1284.836669921875	-646.0577392578126	1061.126708984375	-1322.468017578125	-648.6023559570314	950.7158813476565	-1283.97705078125	-246.1488647460938	1521.331787109375	-888.2196044921877	-408.126922607422	1376.012329101563	-809.9351806640627	-384.9649658203126	1332.870727539063	-803.880065917969	-442.5823974609376	1317.230102539063	-800.6445312500002	-468.7343750000001	1259.560668945313	-790.3725585937502	-485.0402832031251	1253.194580078125	-866.3889770507815	-457.5188903808595	963.7893676757815	-798.504089355469	-517.6044311523439	986.2961425781252	-755.5360107421876	-497.1231689453126	874.3250732421877	-786.2702636718752	-216.5576324462891	1070.918212890625	-1165.91943359375	-194.3648223876954	1082.858520507813	-938.9472656250002	-390.1838378906251	1125.14013671875	-1033.622680664063	-399.7549133300782	1092.88232421875	-1059.079956054688	-394.6371459960939	1095.32373046875	-1002.624450683594	-325.8672790527344	809.307556152344	-1199.550903320313	-283.0220336914063	736.2042846679689	-1203.567993164063	-237.3877716064454	742.7423095703126	-1212.575317382813	-299.2763366699219	682.4335937500001	-1186.272827148438	-271.8220825195313	551.9658813476564	-1173.626953125	-265.9471435546876	539.6649169921876	-1041.587524414063	-251.2115478515626	329.8394775390626	-1120.296997070313	-325.0872497558594	293.8551330566407	-1155.183471679688	-283.7402648925782	283.1225280761719	-1141.966674804688	-282.1911315917969	208.3980255126954	-1102.79736328125	-354.9778137207032	126.6706924438477	-1103.7431640625	-318.4737243652344	141.5002746582032	-1025.916748046875	-413.3379516601564	96.41020965576175	-1049.092163085938	-198.6661834716797	59.19303512573244	-1050.4599609375	-204.7300567626954	51.39550399780275	-1096.277709960938	-261.4423217773438	37.80265808105469	-1138.074462890625	-224.1765747070313	813.2879028320315	-861.341247558594	-187.116195678711	758.1273803710939	-870.662780761719	-155.0101318359375	762.4214477539064	-879.2219238281252	-212.2138366699219	680.3579101562501	-879.686706542969	-206.4715881347657	549.9350585937501	-893.5615234375002	-209.0388336181641	542.1655883789064	-1024.113891601563	-191.9737243652344	359.2910156250001	-915.3440551757815	-277.6900939941407	297.2688598632813	-893.0417480468752	-233.9647216796876	284.1968688964844	-901.0942382812502	-226.9741821289063	236.0638885498047	-933.9310302734377	-303.5548706054688	135.2149505615235	-914.8753662109377	-278.6707763671876	146.2152099609375	-999.4561767578127	-368.1260375976563	100.3365173339844	-973.430603027344	-151.5409851074219	54.69332885742189	-973.611755371094	-157.8477935791016	55.65501403808595	-933.534362792969	-204.7371826171876	39.48705673217774	-883.0794677734377	nan	nan	nan	
1203	6.01	-68.50215148925783	1731.71728515625	-1107.172729492188	-200.0479125976563	1724.7734375	-1155.61474609375	-268.6383666992188	1710.569213867188	-1027.466918945313	-310.4206237792969	1584.40966796875	-1066.049194335938	-379.1744384765626	1262.20263671875	-1049.219360351563	-201.2095794677735	1489.3212890625	-1072.041381835938	-267.3482666015626	1540.145629882813	-1251.286499023438	-443.9664306640626	1401.848022460938	-1292.290649414063	-428.1983642578126	1355.643432617188	-1296.978149414063	-489.143768310547	1349.534545898438	-1289.70556640625	-534.4528198242189	1306.850708007813	-1275.178833007813	-523.9127807617189	1298.591796875	-1208.61083984375	-585.6903076171876	1024.201782226563	-1284.4755859375	-644.1041870117189	1059.02978515625	-1321.807983398438	-644.7372436523439	948.101013183594	-1284.431396484375	-245.9056549072266	1521.1669921875	-887.6826782226565	-407.6734619140626	1375.5	-809.4312133789065	-384.0695800781251	1332.028442382813	-803.6829223632815	-441.8366699218751	1316.305297851563	-800.2922973632815	-467.8160095214845	1259.039184570313	-790.4819335937502	-484.239959716797	1252.380737304688	-866.0342407226565	-455.9353942871095	962.7180175781252	-798.1411743164065	-515.9715576171876	985.1792602539065	-755.3849487304689	-495.5855407714845	873.4261474609377	-785.9268188476565	-216.2630004882813	1071.10693359375	-1165.774169921875	-193.911117553711	1082.532348632813	-938.7192382812502	-389.8289489746095	1124.6171875	-1033.291137695313	-399.4461669921876	1092.515380859375	-1058.86279296875	-394.1582946777345	1094.745361328125	-1002.393127441406	-325.4315490722657	809.325134277344	-1199.51025390625	-282.4663085937501	736.2180175781251	-1203.497314453125	-237.0805969238282	742.8376464843751	-1212.411865234375	-298.9014282226563	682.5535278320314	-1186.270385742188	-271.7184143066407	552.0112304687501	-1173.501708984375	-265.7786560058594	539.7458496093751	-1041.51220703125	-251.0820465087891	330.0240478515626	-1120.244873046875	-325.0761108398438	293.8856506347657	-1155.201293945313	-283.7208251953126	283.2249145507813	-1141.909301757813	-282.1250305175782	208.4991760253907	-1102.741455078125	-355.2351379394532	126.7446670532227	-1103.857299804688	-318.6984558105469	141.4102172851563	-1025.835083007813	-413.3632202148439	96.53118133544925	-1049.125366210938	-198.6343536376954	59.24774169921876	-1050.445068359375	-204.7546386718751	51.34726333618165	-1096.290649414063	-261.4343566894532	37.78039932250977	-1138.0625	-225.0380401611329	812.788757324219	-861.3081054687502	-188.2572784423828	757.5548706054689	-870.2879638671877	-156.3368682861328	762.1915893554689	-878.516052246094	-213.8771362304688	679.7274780273439	-879.4182128906252	-208.2877807617188	549.0679931640626	-893.572937011719	-209.709457397461	541.3729858398439	-1023.933227539063	-192.9501190185547	358.5448913574219	-915.5469360351565	-278.7859191894532	296.3347778320313	-893.0145263671877	-235.7226562500001	283.5619812011719	-900.8013305664065	-227.9079284667969	235.462875366211	-934.1289062500002	-303.7918395996094	134.6735534667969	-915.0288085937502	-279.5060119628907	145.3775634765625	-999.7506103515627	-368.6774597167969	98.93353271484378	-973.5830688476565	-152.3972625732422	54.71570205688478	-973.570495605469	-157.9444427490235	55.90380859375001	-933.4014282226565	-205.2397460937501	39.33374786376954	-883.070495605469	nan	nan	nan	
1204	6.015000000000001	-67.72885131835939	1730.93505859375	-1106.536254882813	-199.3181915283204	1724.411499023438	-1155.10009765625	-268.1484985351563	1710.5400390625	-1026.798706054688	-310.0970458984376	1584.326904296875	-1065.589965820313	-379.2476196289063	1262.046630859375	-1048.527709960938	-201.1286010742188	1488.95166015625	-1071.619506835938	-267.0195007324219	1539.713623046875	-1250.936889648438	-443.7718505859376	1400.645874023438	-1291.783813476563	-427.595916748047	1354.67138671875	-1296.392578125	-488.6313476562501	1348.3271484375	-1289.194946289063	-533.6228637695314	1305.360717773438	-1274.535034179688	-523.1676635742189	1297.273193359375	-1208.1240234375	-583.1903686523439	1022.323791503906	-1283.88134765625	-641.8236083984376	1056.832641601563	-1321.201171875	-641.2802734375001	945.6030273437502	-1284.3759765625	-245.4919433593751	1520.879150390625	-887.2881469726565	-406.2958984375001	1374.451416015625	-808.7170410156252	-383.1157226562501	1331.066528320313	-803.3870849609377	-441.0855102539064	1315.587280273438	-799.851501464844	-467.0250244140626	1258.044189453125	-789.9609985351565	-483.3341064453126	1251.337036132813	-865.7965087890627	-453.9753723144532	961.6464843750002	-798.0430297851565	-514.1336669921876	984.0911254882815	-755.2499389648439	-493.2514953613282	872.3115234375002	-785.4824218750002	-215.9450225830079	1071.17041015625	-1165.524780273438	-193.6060485839844	1082.297485351563	-938.2675781250002	-389.3833618164064	1124.094970703125	-1033.077514648438	-399.2214355468751	1092.140747070313	-1058.650390625	-394.060760498047	1094.192260742188	-1002.324584960938	-325.0712890625001	809.2843017578127	-1199.586303710938	-282.0738220214844	736.3226318359376	-1203.429443359375	-236.7017669677735	742.8935546875001	-1212.331909179688	-298.6311645507813	682.7239379882814	-1186.234497070313	-271.6216735839844	552.1807861328126	-1173.389282226563	-265.2467651367188	539.9486083984376	-1041.2236328125	-250.9852752685547	330.1648254394532	-1120.137817382813	-325.0698852539063	293.9386596679688	-1155.186767578125	-283.6248779296876	283.2843017578126	-1141.712524414063	-282.1420288085938	208.5488586425782	-1102.643310546875	-354.9290771484376	126.6761322021485	-1103.7734375	-318.8019104003907	141.2734832763672	-1025.839233398438	-413.3174133300782	96.4408874511719	-1049.127563476563	-198.7650299072266	59.18569564819337	-1050.447021484375	-204.7147827148438	51.44746398925783	-1096.314697265625	-261.3638916015626	37.77923583984376	-1138.05419921875	-226.2025146484376	812.330749511719	-861.403991699219	-189.7484283447266	756.4315185546876	-870.1711425781252	-157.2515716552735	761.8106689453126	-877.9450683593752	-215.1867370605469	679.1660156250001	-879.519714355469	-209.9408721923829	548.9095458984376	-893.0272216796877	-211.7591247558594	540.9700317382814	-1023.88037109375	-194.6033782958985	358.0309143066407	-915.3198242187502	-279.8481140136719	295.7069396972657	-892.8344726562502	-236.800521850586	282.7302551269532	-900.9573974609377	-228.4963684082032	234.7231445312501	-934.125183105469	-304.9639587402344	133.3990783691407	-915.452331542969	-279.3721313476563	143.6507110595703	-999.9766235351565	-369.4338684082032	97.50880432128909	-973.6809082031252	-152.7608489990235	54.77770614624025	-973.5333251953127	-158.4081420898438	55.76043701171876	-933.302673339844	-205.0745239257813	39.0691146850586	-882.8079223632815	nan	nan	nan	
